<svg width="61" height="61" viewBox="0 0 61 61" fill="none" xmlns="http://www.w3.org/2000/svg">
<path d="M53.375 17.7917V43.2083C53.375 45.9047 52.3039 48.4906 50.3973 50.3972C48.4906 52.3039 45.9047 53.375 43.2083 53.375H17.7917C15.0953 53.375 12.5094 52.3039 10.6028 50.3972C8.69614 48.4906 7.62501 45.9047 7.62501 43.2083V17.7917C7.62501 15.0953 8.69614 12.5094 10.6028 10.6027C12.5094 8.69613 15.0953 7.625 17.7917 7.625H43.2083C45.9047 7.625 48.4906 8.69613 50.3973 10.6027C52.3039 12.5094 53.375 15.0953 53.375 17.7917Z" stroke="#959595" stroke-width="4" stroke-linecap="round" stroke-linejoin="round"/>
<path d="M17.7917 40.6667V30.5M17.7917 30.5V20.3333H22.875C24.2232 20.3333 25.5161 20.8689 26.4695 21.8222C27.4228 22.7755 27.9583 24.0685 27.9583 25.4167C27.9583 26.7648 27.4228 28.0578 26.4695 29.0111C25.5161 29.9644 24.2232 30.5 22.875 30.5H17.7917ZM43.2083 27.9583C42.4306 26.4003 40.837 25.4167 39.0959 25.4167H38.125C37.1139 25.4167 36.1441 25.8183 35.4292 26.5333C34.7142 27.2483 34.3125 28.218 34.3125 29.2292C34.3125 30.2403 34.7142 31.21 35.4292 31.925C36.1441 32.64 37.1139 33.0417 38.125 33.0417H39.3958C40.407 33.0417 41.3767 33.4433 42.0917 34.1583C42.8067 34.8733 43.2083 35.843 43.2083 36.8542C43.2083 37.8653 42.8067 38.835 42.0917 39.55C41.3767 40.265 40.407 40.6667 39.3958 40.6667H38.4249C37.571 40.6667 36.734 40.4289 36.0077 39.9799C35.2813 39.531 34.6944 38.8887 34.3125 38.125" stroke="#959595" stroke-width="4" stroke-linecap="round" stroke-linejoin="round"/>
</svg>
