<svg width="601" height="517" viewBox="0 0 601 517" fill="none" xmlns="http://www.w3.org/2000/svg">
<g opacity="0.04" filter="url(#filter0_f_587_640)">
<path fill-rule="evenodd" clip-rule="evenodd" d="M600.946 279.946L600.694 283.572L600.147 287.187L599.307 290.781L598.177 294.346L596.763 297.871L595.072 301.349L593.113 304.772L590.896 308.133L588.431 311.423L585.732 314.637L582.812 317.769L579.686 320.814L576.369 323.767L572.878 326.626L569.229 329.387L565.441 332.049L561.53 334.61L557.514 337.071L553.409 339.43L549.233 341.69L545 343.852L540.727 345.917L536.427 347.888L532.113 349.768L527.798 351.561L523.493 353.268L519.21 354.895L514.957 356.446L510.743 357.923L506.577 359.331L502.466 360.676L498.416 361.96L494.435 363.19L490.529 364.369L486.702 365.504L482.962 366.599L479.313 367.659L475.76 368.692L472.309 369.702L468.964 370.696L465.729 371.681L462.608 372.662L459.605 373.647L456.724 374.642L453.967 375.654L451.336 376.689L448.835 377.756L446.463 378.859L444.223 380.007L442.114 381.205L440.136 382.46L438.288 383.778L436.569 385.164L434.977 386.623L433.508 388.161L432.159 389.782L430.926 391.49L429.805 393.288L428.788 395.178L427.872 397.163L427.048 399.245L426.311 401.423L425.652 403.698L425.063 406.069L424.536 408.535L424.063 411.093L423.634 413.741L423.24 416.474L422.873 419.289L422.522 422.179L422.178 425.14L421.832 428.165L421.475 431.247L421.098 434.379L420.692 437.551L420.248 440.757L419.759 443.987L419.218 447.232L418.616 450.483L417.947 453.729L417.206 456.963L416.387 460.173L415.484 463.35L414.495 466.486L413.415 469.57L412.242 472.594L410.973 475.55L409.608 478.429L408.145 481.224L406.584 483.927L404.927 486.534L403.175 489.037L401.329 491.432L399.392 493.715L397.367 495.883L395.257 497.934L393.067 499.865L390.8 501.676L388.462 503.367L386.056 504.939L383.589 506.394L381.065 507.734L378.49 508.963L375.868 510.084L373.205 511.101L370.506 512.02L367.776 512.845L365.019 513.581L362.239 514.234L359.441 514.808L356.627 515.309L353.801 515.74L350.966 516.105L348.124 516.407L345.277 516.647L342.426 516.826L339.572 516.944L336.718 517L333.864 516.993L331.01 516.919L328.159 516.778L325.311 516.566L322.467 516.281L319.629 515.921L316.799 515.482L313.978 514.965L311.168 514.366L308.371 513.685L305.589 512.922L302.825 512.078L300.079 511.151L297.355 510.145L294.654 509.061L291.979 507.901L289.331 506.669L286.712 505.368L284.124 504.002L281.568 502.576L279.046 501.095L276.558 499.564L274.106 497.99L271.689 496.377L269.309 494.733L266.964 493.063L264.655 491.375L262.38 489.675L260.14 487.969L257.932 486.265L255.755 484.568L253.608 482.885L251.488 481.223L249.393 479.587L247.32 477.983L245.267 476.417L243.23 474.894L241.207 473.42L239.194 471.998L237.188 470.632L235.185 469.328L233.181 468.088L231.172 466.915L229.156 465.813L227.127 464.783L225.081 463.827L223.016 462.947L220.926 462.145L218.809 461.42L216.659 460.773L214.474 460.205L212.249 459.715L209.982 459.302L207.667 458.965L205.303 458.704L202.885 458.516L200.41 458.4L197.875 458.354L195.278 458.375L192.615 458.46L189.885 458.608L187.083 458.814L184.209 459.075L181.26 459.389L178.234 459.752L175.129 460.158L171.945 460.606L168.679 461.089L165.331 461.605L161.9 462.149L158.386 462.715L154.788 463.299L151.107 463.896L147.343 464.5L143.496 465.108L139.569 465.712L135.562 466.307L131.478 466.887L127.318 467.447L123.087 467.98L118.786 468.48L114.422 468.939L109.997 469.352L105.517 469.711L100.989 470.009L96.419 470.239L91.816 470.391L87.1896 470.457L82.5506 470.427L77.911 470.293L73.2843 470.044L68.6845 469.671L64.1269 469.164L59.6274 468.514L55.2022 467.714L50.8679 466.755L46.6413 465.631L42.5389 464.337L38.577 462.867L34.7717 461.219L31.1382 459.39L27.6912 457.379L24.4445 455.187L21.4111 452.816L18.6027 450.267L16.0299 447.545L13.7023 444.655L11.6279 441.602L9.81343 438.395L8.26434 435.04L6.98448 431.547L5.97628 427.924L5.24067 424.182L4.77709 420.333L4.58349 416.386L4.65634 412.353L4.99068 408.246L5.58012 404.078L6.4169 399.859L7.49193 395.602L8.79488 391.32L10.3142 387.023L12.0372 382.723L13.9502 378.431L16.0385 374.157L18.2865 369.913L20.6779 365.707L23.1957 361.547L25.8223 357.443L28.5395 353.402L31.329 349.43L34.1719 345.534L37.0494 341.717L39.9426 337.985L42.8325 334.341L45.7005 330.786L48.5281 327.323L51.2972 323.952L53.9904 320.673L56.5905 317.484L59.0813 314.384L61.4473 311.369L63.6737 308.436L65.7468 305.581L67.6539 302.799L69.3834 300.084L70.9248 297.43L72.2688 294.83L73.4074 292.278L74.3339 289.765L75.0431 287.283L75.5308 284.825L75.7946 282.382L75.8333 279.946L75.647 277.508L75.2374 275.06L74.6074 272.593L73.7616 270.1L72.7054 267.573L71.4459 265.004L69.9913 262.386L68.3511 259.712L66.5356 256.976L64.5564 254.172L62.4261 251.296L60.1581 248.343L57.7665 245.309L55.2664 242.191L52.6731 238.988L50.0028 235.697L47.2718 232.318L44.4969 228.851L41.6951 225.297L38.8833 221.657L36.0786 217.934L33.2972 214.131L30.5546 210.25L27.8651 206.297L25.2417 202.276L22.696 198.189L20.2384 194.043L17.8792 189.842L15.6288 185.591L13.4971 181.297L11.4938 176.965L9.62813 172.603L7.90849 168.216L6.34265 163.813L4.93756 159.4L3.69931 154.983L2.6331 150.572L1.74319 146.171L1.03295 141.789L0.504795 137.431L0.16026 133.106L0 128.817L0.0238298 124.572L0.230768 120.377L0.619084 116.235L1.18635 112.153L1.92951 108.134L2.84491 104.183L3.9284 100.302L5.17536 96.4966L6.58079 92.768L8.13935 89.119L9.84542 85.5516L11.6932 82.0676L13.6767 78.6683L15.79 75.3548L18.0267 72.1278L20.381 68.9878L22.8466 65.935L25.4176 62.9695L28.0881 60.0912L30.8525 57.2997L33.7053 54.5948L36.641 51.9758L39.6546 49.4423L42.7413 46.9938L45.8964 44.6296L49.1157 42.3494L52.395 40.1525L55.7306 38.0386L59.1189 36.0075L62.5566 34.0589L66.0408 32.1929L69.5686 30.4095L73.1374 28.709L76.7449 27.0918L80.3889 25.5586L84.0674 24.11L87.7786 22.747L91.5208 21.4708L95.2924 20.2825L99.0917 19.1835L102.917 18.1755L106.768 17.26L110.642 16.4388L114.539 15.7137L118.456 15.0866L122.392 14.5595L126.346 14.1341L130.315 13.8124L134.299 13.5961L138.296 13.4871L142.302 13.4868L146.317 13.5967L150.338 13.8181L154.362 14.1518L158.388 14.5986L162.412 15.1589L166.431 15.8328L170.442 16.62L174.443 17.5198L178.431 18.5312L182.401 19.6526L186.35 20.8822L190.276 22.2174L194.174 23.6554L198.042 25.193L201.875 26.8263L205.671 28.5512L209.425 30.3631L213.136 32.2572L216.799 34.228L220.412 36.2685L223.972 38.3702L227.474 40.5224L230.915 42.713L234.293 44.9281L237.605 47.1529L240.848 49.3722L244.021 51.5709L247.124 53.7337L250.156 55.8455L253.118 57.8914L256.011 59.8566L258.837 61.7271L261.6 63.4889L264.301 65.129L266.946 66.6348L269.538 67.9947L272.084 69.1977L274.588 70.234L277.056 71.0944L279.496 71.7713L281.914 72.2577L284.317 72.5482L286.712 72.6384L289.108 72.5251L291.512 72.2066L293.931 71.6825L296.374 70.9534L298.849 70.0217L301.362 68.8908L303.92 67.5656L306.532 66.0521L309.203 64.3578L311.94 62.4914L314.748 60.4625L317.633 58.2822L320.598 55.9626L323.648 53.5168L326.786 50.9587L330.014 48.3033L333.333 45.5663L336.745 42.7641L340.249 39.9136L343.845 37.0325L347.53 34.1388L351.301 31.2505L355.156 28.3863L359.09 25.5646L363.096 22.8041L367.17 20.1232L371.303 17.5399L375.489 15.0723L379.718 12.7377L383.981 10.553L388.268 8.53416L392.569 6.69674L396.873 5.05521L401.169 3.62312L405.444 2.41297L409.686 1.43611L413.884 0.702658L418.025 0.221462L422.096 0L426.086 0.0443405L429.983 0.35909L433.775 0.947359L437.45 1.81073L440.998 2.94923L444.409 4.36135L447.674 6.04403L450.784 7.99267L453.731 10.2012L456.509 12.662L459.112 15.3661L461.536 18.3032L463.778 21.4618L465.835 24.829L467.707 28.391L469.396 32.1332L470.901 36.0399L472.228 40.0948L473.379 44.2813L474.362 48.5822L475.182 52.9803L475.847 57.4582L476.367 61.9992L476.749 66.5866L477.005 71.2045L477.144 75.838L477.176 80.4731L477.111 85.0969L476.961 89.6968L476.737 94.2607L476.45 98.7771L476.113 103.236L475.737 107.626L475.335 111.941L474.919 116.171L474.5 120.308L474.092 124.347L473.706 128.282L473.355 132.108L473.051 135.82L472.805 139.414L472.631 142.889L472.538 146.242L472.539 149.472L472.645 152.579L472.865 155.562L473.21 158.424L473.688 161.166L474.31 163.79L475.081 166.301L476.011 168.702L477.103 170.998L478.365 173.196L479.8 175.3L481.412 177.318L483.202 179.257L485.172 181.124L487.321 182.929L489.648 184.68L492.151 186.385L494.826 188.054L497.668 189.696L500.67 191.321L503.826 192.938L507.127 194.557L510.562 196.186L514.122 197.836L517.794 199.514L521.566 201.231L525.423 202.993L529.351 204.809L533.335 206.686L537.357 208.631L541.403 210.65L545.453 212.747L549.49 214.929L553.496 217.199L557.453 219.559L561.342 222.013L565.145 224.562L568.842 227.206L572.417 229.946L575.852 232.78L579.128 235.707L582.23 238.723L585.14 241.825L587.845 245.009L590.329 248.271L592.579 251.603L594.582 255L596.328 258.455L597.807 261.96L599.011 265.507L599.931 269.088L600.563 272.694L600.902 276.317L600.946 279.946Z" fill="#FD6F00"/>
</g>
<defs>
<filter id="filter0_f_587_640" x="-80.04" y="-80.04" width="761.026" height="677.08" filterUnits="userSpaceOnUse" color-interpolation-filters="sRGB">
<feFlood flood-opacity="0" result="BackgroundImageFix"/>
<feBlend mode="normal" in="SourceGraphic" in2="BackgroundImageFix" result="shape"/>
<feGaussianBlur stdDeviation="40" result="effect1_foregroundBlur_587_640"/>
</filter>
</defs>
</svg>
