<svg width="61" height="61" viewBox="0 0 61 61" fill="none" xmlns="http://www.w3.org/2000/svg">
<path d="M40.6667 30.5V40.6667M40.6667 22.875V22.9004M53.375 17.7917V43.2083C53.375 45.9047 52.3039 48.4906 50.3972 50.3972C48.4906 52.3039 45.9047 53.375 43.2083 53.375H17.7917C15.0953 53.375 12.5094 52.3039 10.6027 50.3972C8.69613 48.4906 7.625 45.9047 7.625 43.2083V17.7917C7.625 15.0953 8.69613 12.5094 10.6027 10.6027C12.5094 8.69613 15.0953 7.625 17.7917 7.625H43.2083C45.9047 7.625 48.4906 8.69613 50.3972 10.6027C52.3039 12.5094 53.375 15.0953 53.375 17.7917Z" stroke="#959595" stroke-width="4" stroke-linecap="round" stroke-linejoin="round"/>
<path d="M17.7917 40.6667L20.651 33.0417M20.651 33.0417L25.4167 20.3333L30.1823 33.0417M20.651 33.0417H30.1823M33.0417 40.6667L30.1823 33.0417" stroke="#959595" stroke-width="4" stroke-linecap="round" stroke-linejoin="round"/>
</svg>
