<svg width="60" height="60" viewBox="0 0 60 60" fill="none" xmlns="http://www.w3.org/2000/svg">
<path fill-rule="evenodd" clip-rule="evenodd" d="M17.27 10.81C25.7308 9.87218 34.2692 9.87218 42.73 10.81C44.3451 10.9888 45.8529 11.7068 47.0096 12.8481C48.1664 13.9894 48.9046 15.4874 49.105 17.1C50.1074 25.6708 50.1074 34.3292 49.105 42.9C48.9046 44.5126 48.1664 46.0106 47.0096 47.1519C45.8529 48.2932 44.3451 49.0112 42.73 49.19C34.2692 50.1279 25.7308 50.1279 17.27 49.19C15.6548 49.0112 14.1471 48.2932 12.9904 47.1519C11.8336 46.0106 11.0954 44.5126 10.895 42.9C9.89262 34.3292 9.89262 25.6708 10.895 17.1C11.0954 15.4874 11.8336 13.9894 12.9904 12.8481C14.1471 11.7068 15.6548 10.9888 17.27 10.81ZM43.145 7.085C34.4084 6.11649 25.5916 6.11649 16.855 7.085C11.825 7.645 7.7625 11.6075 7.1725 16.6625C6.13597 25.524 6.13597 34.476 7.1725 43.3375C7.7625 48.3925 11.8225 52.355 16.855 52.9175C25.5916 53.885 34.4084 53.885 43.145 52.9175C48.175 52.355 52.2375 48.3925 52.8275 43.3375C53.8639 34.476 53.8639 25.524 52.8275 16.6625C52.2375 11.6075 48.1775 7.645 43.145 7.0825M23.4375 38.75H20.0825V20.4625C21.2925 20.2425 22.97 20.0775 25.2525 20.0775C27.7275 20.0775 29.5425 20.6 30.725 21.59C31.825 22.4975 32.54 23.955 32.54 25.6875C32.54 27.4475 31.99 28.905 30.945 29.895C29.595 31.2425 27.48 31.875 25.0875 31.875C24.455 31.875 23.8775 31.8475 23.4375 31.765V38.75ZM25.3875 22.6625C24.455 22.6625 23.795 22.745 23.4375 22.8275V29.0975C23.85 29.2075 24.4 29.235 25.0875 29.235C27.6175 29.235 29.1575 27.9975 29.1575 25.825C29.1575 23.7625 27.7275 22.6625 25.39 22.6625M37.2675 38.75H33.885V29.675C33.885 27.86 33.86 26.5675 33.775 25.3575H36.7175L36.8275 27.915H36.9375C37.5975 26.0175 39.165 25.055 40.595 25.055C40.925 25.055 41.12 25.0825 41.395 25.1375V28.3275C41.069 28.2557 40.7363 28.2188 40.4025 28.2175C38.78 28.2175 37.68 29.2625 37.3775 30.775C37.3093 31.1193 37.2725 31.4691 37.2675 31.82V38.75Z" fill="#959595"/>
</svg>
